<svg width="57" height="57" viewBox="0 0 57 57" fill="none" xmlns="http://www.w3.org/2000/svg">
<path opacity="0.1" fill-rule="evenodd" clip-rule="evenodd" d="M24.5416 0.791616H32.4583C45.575 0.791616 56.2083 11.4246 56.2083 24.5416V32.4583C56.2083 45.5748 45.575 56.2082 32.4583 56.2082H24.5416C11.4249 56.2082 0.791673 45.5748 0.791673 32.4583V24.5416C0.791673 11.4246 11.4249 0.791616 24.5416 0.791616Z" fill="url(#paint0_linear_1_482)"/>
<path fill-rule="evenodd" clip-rule="evenodd" d="M31.2171 32.9626C31.3849 32.7923 31.4689 32.5914 31.4689 32.3591V30.2148H40.3749V36.6481C40.3749 37.2372 40.1674 37.7424 39.7521 38.1621C39.3369 38.5821 38.8376 38.792 38.2545 38.792H18.7456C18.1624 38.792 17.6631 38.5821 17.2479 38.1621C16.8325 37.7424 16.6249 37.2372 16.6249 36.6481V30.2148H25.5312V32.3591C25.5312 32.5914 25.6152 32.7923 25.783 32.9626C25.9509 33.132 26.1497 33.2171 26.3796 33.2171H30.6206C30.8502 33.2171 31.0492 33.132 31.2171 32.9626ZM30.1966 30.2148H26.8035V31.93H30.1966V30.2148ZM39.7521 22.2675C39.3369 21.8469 38.8376 21.6371 38.2546 21.6371H33.5892V19.4928C33.5892 19.1353 33.4656 18.8318 33.2181 18.5811C32.9709 18.3317 32.6703 18.2061 32.3171 18.2061H24.6831C24.3297 18.2061 24.0293 18.3317 23.7819 18.5811C23.5345 18.8314 23.4108 19.1353 23.4108 19.4928V21.6371H18.7456C18.1624 21.6371 17.6631 21.8469 17.2479 22.2675C16.8325 22.6867 16.6249 23.1915 16.6249 23.7814V28.9281H40.3749V23.7814C40.3749 23.1915 40.1675 22.6867 39.7521 22.2675ZM31.8929 21.6371H25.1072V19.9214H31.8929V21.6371Z" fill="#FF4550"/>
<defs>
<linearGradient id="paint0_linear_1_482" x1="32.7855" y1="89.7855" x2="89.7855" y2="24.2145" gradientUnits="userSpaceOnUse">
<stop stop-color="#FF416C"/>
<stop offset="1" stop-color="#FF4B2B"/>
</linearGradient>
</defs>
</svg>
