<svg width="142" height="26" viewBox="0 0 142 26" fill="none" xmlns="http://www.w3.org/2000/svg">
<path opacity="0.8" d="M43.24 5.96V20H51.14V17.36H46.66V5.96H43.24ZM52.0913 14.4C52.0913 17.92 54.2713 20.16 56.9913 20.16C58.6513 20.16 59.8313 19.4 60.4513 18.42V20H63.8713V8.84H60.4513V10.42C59.8513 9.44 58.6713 8.68 57.0113 8.68C54.2713 8.68 52.0913 10.88 52.0913 14.4ZM60.4513 14.42C60.4513 16.2 59.3113 17.18 58.0113 17.18C56.7313 17.18 55.5713 16.18 55.5713 14.4C55.5713 12.62 56.7313 11.66 58.0113 11.66C59.3113 11.66 60.4513 12.64 60.4513 14.42ZM74.0455 20H77.4455V13.48C77.4455 10.48 75.7255 8.72 73.1455 8.72C71.6455 8.72 70.4455 9.38 69.7655 10.32V8.84H66.3455V20H69.7655V13.94C69.7655 12.42 70.6055 11.58 71.9055 11.58C73.2055 11.58 74.0455 12.42 74.0455 13.94V20ZM79.142 14.4C79.142 17.92 81.322 20.16 84.062 20.16C85.702 20.16 86.882 19.42 87.502 18.4V20H90.922V5.2H87.502V10.38C86.822 9.36 85.542 8.68 84.062 8.68C81.322 8.68 79.142 10.88 79.142 14.4ZM87.502 14.42C87.502 16.2 86.362 17.18 85.062 17.18C83.782 17.18 82.622 16.18 82.622 14.4C82.622 12.62 83.782 11.66 85.062 11.66C86.362 11.66 87.502 12.64 87.502 14.42ZM92.7163 14.4C92.7163 17.92 94.8963 20.16 97.6363 20.16C99.2763 20.16 100.456 19.38 101.076 18.4V19.98C101.076 21.86 100.056 22.54 98.7563 22.54C97.5763 22.54 96.7363 22 96.5163 21.16H93.1363C93.4363 23.82 95.5963 25.5 98.9163 25.5C102.776 25.5 104.496 22.96 104.496 19.98V8.84H101.076V10.42C100.476 9.42 99.2763 8.68 97.6363 8.68C94.8963 8.68 92.7163 10.88 92.7163 14.4ZM101.076 14.42C101.076 16.2 99.9363 17.18 98.6363 17.18C97.3563 17.18 96.1963 16.18 96.1963 14.4C96.1963 12.62 97.3563 11.66 98.6363 11.66C99.9363 11.66 101.076 12.64 101.076 14.42ZM117.99 8.84H114.57V14.9C114.57 16.42 113.73 17.26 112.41 17.26C111.13 17.26 110.27 16.42 110.27 14.9V8.84H106.87V15.36C106.87 18.34 108.61 20.12 111.19 20.12C112.69 20.12 113.89 19.44 114.57 18.48V20H117.99V8.84ZM123.867 14.82C123.867 12.9 124.807 12.34 126.427 12.34H127.367V8.72C125.867 8.72 124.647 9.52 123.867 10.7V8.84H120.447V20H123.867V14.82ZM140.022 8.84H136.602V14.9C136.602 16.42 135.762 17.26 134.442 17.26C133.162 17.26 132.302 16.42 132.302 14.9V8.84H128.902V15.36C128.902 18.34 130.642 20.12 133.222 20.12C134.722 20.12 135.922 19.44 136.602 18.48V20H140.022V8.84Z" fill="white"/>
<path fill-rule="evenodd" clip-rule="evenodd" d="M29.0328 6.88628C29.0374 6.96801 29.0315 7.05102 29.011 7.13445L27.1854 14.4667C27.0932 14.8358 26.7635 15.0959 26.3845 15.0981L15.4306 15.1536C15.4292 15.1536 15.4278 15.1536 15.4263 15.1536H4.47241C4.09128 15.1536 3.75925 14.8925 3.66725 14.5214L1.84158 7.1611C1.82049 7.07595 1.81448 6.99036 1.81979 6.9065C1.11351 6.6833 0.599854 6.01969 0.599854 5.23781C0.599854 4.27232 1.38155 3.48742 2.3425 3.48742C3.30344 3.48742 4.08514 4.27232 4.08514 5.23781C4.08514 5.78099 3.83716 6.26699 3.4489 6.58867L5.73461 8.90075C6.31235 9.48521 7.11392 9.82067 7.93398 9.82067C8.90373 9.82067 9.82826 9.35792 10.4105 8.58334L14.167 3.58548C13.8514 3.26895 13.656 2.83155 13.656 2.34903C13.656 1.38394 14.4377 0.598633 15.3986 0.598633C16.3595 0.598633 17.1413 1.38394 17.1413 2.34903C17.1413 2.81695 16.9563 3.24142 16.6572 3.5558C16.6582 3.5571 16.6595 3.5584 16.6604 3.55967L20.3896 8.57132C20.9716 9.35319 21.8994 9.82067 22.8719 9.82067C23.6996 9.82067 24.4779 9.49683 25.063 8.90935L27.3631 6.59942C26.9667 6.27817 26.7121 5.78789 26.7121 5.23781C26.7121 4.27232 27.4939 3.48742 28.4548 3.48742C29.4157 3.48742 30.1975 4.27232 30.1975 5.23781C30.1975 5.99861 29.71 6.6463 29.0328 6.88628ZM27.4073 18.1656C27.4073 17.7059 27.0357 17.3325 26.5775 17.3325H5.11229C4.65399 17.3325 4.28241 17.7059 4.28241 18.1656V20.1654C4.28241 20.626 4.65399 20.9989 5.11229 20.9989H26.5775C27.0357 20.9989 27.4073 20.626 27.4073 20.1654V18.1656Z" fill="white"/>
</svg>
