<svg width="25" height="26" viewBox="0 0 25 26" fill="none" xmlns="http://www.w3.org/2000/svg">
<path fill-rule="evenodd" clip-rule="evenodd" d="M12.4999 0.997314C5.59641 0.997314 -9.15527e-05 6.59409 -9.15527e-05 13.4968C-9.15527e-05 20.4016 5.59641 25.9978 12.4999 25.9978C19.4034 25.9978 24.9999 20.4016 24.9999 13.4968C24.9999 6.59409 19.4034 0.997314 12.4999 0.997314ZM16.8202 14.1597L10.5702 18.0666C10.4438 18.1457 10.2999 18.1849 10.1562 18.1849C10.026 18.1849 9.89539 18.1521 9.7774 18.0866C9.52906 17.9495 9.37492 17.6871 9.37492 17.4043V9.59141C9.37492 9.30752 9.52906 9.04569 9.7774 8.90807C10.0257 8.76936 10.3294 8.77742 10.5702 8.92904L16.8202 12.8344C17.0485 12.978 17.1875 13.2285 17.1875 13.4968C17.1875 13.7667 17.0485 14.0177 16.8202 14.1597Z" fill="white"/>
</svg>
